<?xml version="1.0" encoding="UTF-8"?>
<svg id="Capa_2" data-name="Capa 2" xmlns="http://www.w3.org/2000/svg" viewBox="0 0 1006.76 324.94">
  <defs>
    <style>
      .cls-1 {
        fill: #1d1d1b;
      }

      .cls-2 {
        fill: #fff;
      }

      .cls-2, .cls-3 {
        stroke: #fff;
        stroke-miterlimit: 10;
      }

      .cls-3 {
        fill: none;
        stroke-linecap: round;
        stroke-width: 6px;
      }

      .cls-4 {
        fill: #fcc10a;
      }
    </style>
  </defs>
  <g id="Layer_1" data-name="Layer 1">
    <g>
      <path class="cls-1" d="M334.69,196.79v20.65h43.57v22.62h-70.14v-106.27h68.62v22.62h-42.05v18.37h40.53v22.01h-40.53Z"/>
      <path class="cls-1" d="M455.38,184.95l32.34,55.11h-29.76l-20.34-36.89-20.19,36.89h-29.45l32.34-54.96-29.15-51.31h29.3l17.46,33.4,17.46-33.4h29.15l-29.15,51.16Z"/>
      <path class="cls-1" d="M566.5,173.87v-40.08h26.57v106.27h-26.57v-42.2h-38.11v42.2h-26.57v-106.27h26.57v40.08h38.11Z"/>
      <path class="cls-1" d="M645.14,240.06h-26.57v-106.27h26.57v106.27Z"/>
      <path class="cls-1" d="M747.39,192.77c3.19,4.3,4.78,9.39,4.78,15.26,0,9.51-3.62,17.23-10.85,23.15-7.24,5.92-17.84,8.88-31.8,8.88h-38.87v-106.27h37.2c12.55,0,22.32,2.53,29.3,7.59,6.98,5.06,10.47,12.04,10.47,20.95,0,4.55-1.24,8.63-3.72,12.22-2.48,3.59-5.75,6.45-9.79,8.58,5.67,2.13,10.09,5.34,13.28,9.64ZM697.21,154.43v22.32h9.87c4.45,0,7.92-1.04,10.4-3.11,2.48-2.07,3.72-4.78,3.72-8.12s-1.24-5.89-3.72-7.97c-2.48-2.07-5.95-3.11-10.4-3.11h-9.87ZM710.12,219.41c4.65,0,8.3-1.14,10.93-3.42,2.63-2.28,3.95-5.14,3.95-8.58s-1.29-6.43-3.87-8.65c-2.58-2.22-6.25-3.34-11.01-3.34h-12.9v23.99h12.9Z"/>
      <path class="cls-1" d="M797.41,240.06h-26.57v-106.27h26.57v106.27Z"/>
      <path class="cls-1" d="M888.95,240.06h-66.04v-106.27h26.57v82.28h39.47v23.99Z"/>
      <path class="cls-1" d="M921.21,235.12c-8.76-4.6-15.71-11.11-20.87-19.51-5.16-8.4-7.74-17.96-7.74-28.69s2.58-20.29,7.74-28.69c5.16-8.4,12.12-14.9,20.87-19.51,8.75-4.6,18.24-6.91,28.46-6.91s19.71,2.3,28.46,6.91c8.75,4.61,15.71,11.11,20.88,19.51,5.16,8.4,7.74,17.97,7.74,28.69s-2.58,20.29-7.74,28.69c-5.16,8.4-12.12,14.9-20.88,19.51-8.75,4.61-18.24,6.91-28.46,6.91s-19.71-2.3-28.46-6.91ZM965.08,213.79c4.6-2.63,8.2-6.27,10.78-10.93,2.58-4.65,3.87-9.97,3.87-15.94s-1.29-11.28-3.87-15.94c-2.58-4.65-6.17-8.3-10.78-10.93-4.61-2.63-9.74-3.95-15.41-3.95s-10.8,1.32-15.41,3.95c-4.61,2.63-8.2,6.28-10.78,10.93-2.58,4.66-3.87,9.97-3.87,15.94s1.29,11.29,3.87,15.94c2.58,4.66,6.17,8.3,10.78,10.93,4.6,2.63,9.74,3.95,15.41,3.95s10.8-1.31,15.41-3.95Z"/>
    </g>
    <g>
      <path class="cls-4" d="M91.52,1.33L6.97,43.6c-4.27,2.14-6.97,6.51-6.97,11.29v178.73c0,4.78,2.7,9.15,6.97,11.28l157.42,78.71c3.55,1.78,7.73,1.78,11.28,0l84.55-42.27c4.27-2.14,6.97-6.51,6.97-11.29V91.32c0-4.78-2.7-9.15-6.98-11.28L102.81,1.33c-3.55-1.78-7.73-1.78-11.28,0Z"/>
      <g>
        <path class="cls-3" d="M195.51,266.36l22.14-11.07c2.7-1.35,4.41-4.11,4.41-7.13V114.77c0-3.01-1.7-5.77-4.39-7.12l-116.75-58.67c-2.22-1.12-4.84-1.13-7.07-.02l-46.39,22.9c-2.72,1.34-4.44,4.11-4.44,7.15v133.34c0,3.03,1.71,5.79,4.42,7.14l117.04,58.17c2.12,1.05,4.61-.49,4.61-2.86v-28.71c0-1.21-.69-2.32-1.77-2.86l-86.72-42.98c-1.09-.54-1.77-1.65-1.77-2.86v-10.77c0-2.37,2.49-3.91,4.61-2.85l62.39,31.19c2.12,1.06,4.61-.48,4.61-2.85v-28.69c0-1.2-.68-2.31-1.75-2.85l-67.97-34.26c-1.08-.54-1.75-1.64-1.75-2.85v-10.59c0-2.37,2.49-3.91,4.61-2.85l80.37,40.18c2.12,1.06,4.61-.48,4.61-2.85l.02-28.82c0-1.21.68-2.31,1.76-2.85l25.17-12.58"/>
        <circle class="cls-2" cx="182.74" cy="272.29" r="3.76"/>
        <circle class="cls-2" cx="207.41" cy="117.18" r="3.76"/>
      </g>
    </g>
  </g>
</svg>